<svg xmlns="http://www.w3.org/2000/svg" width="637.313" height="825.859" viewBox="0 0 637.313 825.859">
  <g id="Group_121" data-name="Group 121" transform="translate(-4834.344 5615.93)">
    <g id="Group_83" data-name="Group 83" transform="translate(4834.344 -5615.93)">
      <g id="Group_35" data-name="Group 35">
        <g id="Group_32" data-name="Group 32">
          <g id="Group_31" data-name="Group 31">
            <g id="Group_28" data-name="Group 28">
              <path id="Path_58" data-name="Path 58" d="M323.277,391.049c-176.624,0-318.661,142.973-318.661,318.662S147.6,1028.37,323.277,1028.37,641.929,885.389,641.929,709.711,498.957,391.049,323.277,391.049Zm0,537.328c-120.552,0-218.667-98.124-218.667-218.666s98.115-218.669,218.667-218.669,218.667,98.125,218.667,218.669A218.355,218.355,0,0,1,323.277,928.377Z" transform="translate(-4.616 -202.51)"/>
              <path id="Path_59" data-name="Path 59" d="M43.243,514.346S34.8,374.58,228.035,368.957C228.035,368.957,228.035,518.1,43.243,514.346Z" transform="translate(284.257 -368.957)" fill="#f47722"/>
            </g>
          </g>
        </g>
      </g>
    </g>
  </g>
</svg>
